<svg width="90" height="90" viewBox="0 0 90 90" fill="none" xmlns="http://www.w3.org/2000/svg">
<path d="M0 4C0 1.79086 1.79086 0 4 0H86C88.2091 0 90 1.79086 90 4V86C90 88.2091 88.2091 90 86 90H4C1.79086 90 0 88.2091 0 86V4Z" fill="#9DCCFF" fill-opacity="0.3"/>
<path d="M56.25 34.0859C56.25 31.6836 50.332 29.75 43.125 29.75C35.8594 29.75 30 31.6836 30 34.0859V36.7227C30 39.125 35.8594 41 43.125 41C50.332 41 56.25 39.125 56.25 36.7227V34.0859ZM56.25 40.0625C53.3789 42.0547 48.2227 42.9336 43.125 42.9336C37.9688 42.9336 32.8125 42.0547 30 40.0625V46.0977C30 48.5 35.8594 50.375 43.125 50.375C50.332 50.375 56.25 48.5 56.25 46.0977V40.0625ZM56.25 49.4375C53.3789 51.4297 48.2227 52.3086 43.125 52.3086C37.9688 52.3086 32.8125 51.4297 30 49.4375V55.4727C30 57.875 35.8594 59.75 43.125 59.75C50.332 59.75 56.25 57.875 56.25 55.4727V49.4375Z" fill="#9DCCFF"/>
</svg>
