<svg width="90" height="90" viewBox="0 0 90 90" fill="none" xmlns="http://www.w3.org/2000/svg">
<path d="M0 4C0 1.79086 1.79086 0 4 0H86C88.2091 0 90 1.79086 90 4V86C90 88.2091 88.2091 90 86 90H4C1.79086 90 0 88.2091 0 86V4Z" fill="#5B72EE" fill-opacity="0.3"/>
<path d="M60.9375 29.75H32.8125C31.2305 29.75 30 31.0391 30 32.5625V51.3125C30 52.8945 31.2305 54.125 32.8125 54.125H44.0625L43.125 56.9375H38.9062C38.0859 56.9375 37.5 57.582 37.5 58.3438C37.5 59.1641 38.0859 59.75 38.9062 59.75H54.8438C55.6055 59.75 56.25 59.1641 56.25 58.3438C56.25 57.582 55.6055 56.9375 54.8438 56.9375H50.625L49.6875 54.125H60.9375C62.4609 54.125 63.75 52.8945 63.75 51.3125V32.5625C63.75 31.0391 62.4609 29.75 60.9375 29.75ZM60 50.375H33.75V33.5H60V50.375Z" fill="#5B72EE"/>
</svg>
