<svg width="90" height="90" viewBox="0 0 90 90" fill="none" xmlns="http://www.w3.org/2000/svg">
<path d="M0 4C0 1.79086 1.79086 0 4 0H86C88.2091 0 90 1.79086 90 4V86C90 88.2091 88.2091 90 86 90H4C1.79086 90 0 88.2091 0 86V4Z" fill="#252641" fill-opacity="0.3"/>
<path d="M58.5938 33.5H58.125V34.6719C58.125 35.082 57.7734 35.375 57.4219 35.375H55.0781C54.668 35.375 54.375 35.082 54.375 34.6719V33.5H35.625V34.6719C35.625 35.082 35.2734 35.375 34.9219 35.375H32.5781C32.168 35.375 31.875 35.082 31.875 34.6719V33.5H31.4062C30.5859 33.5 30 34.1445 30 34.9062V54.5938C30 55.4141 30.5859 56 31.4062 56H31.875V54.8281C31.875 54.4766 32.168 54.125 32.5781 54.125H34.9219C35.2734 54.125 35.625 54.4766 35.625 54.8281V56H54.375V54.8281C54.375 54.4766 54.668 54.125 55.0781 54.125H57.4219C57.7734 54.125 58.125 54.4766 58.125 54.8281V56H58.5938C59.3555 56 60 55.4141 60 54.5938V34.9062C60 34.1445 59.3555 33.5 58.5938 33.5ZM35.625 51.5469C35.625 51.957 35.2734 52.25 34.9219 52.25H32.5781C32.168 52.25 31.875 51.957 31.875 51.5469V49.2031C31.875 48.8516 32.168 48.5 32.5781 48.5H34.9219C35.2734 48.5 35.625 48.8516 35.625 49.2031V51.5469ZM35.625 45.9219C35.625 46.332 35.2734 46.625 34.9219 46.625H32.5781C32.168 46.625 31.875 46.332 31.875 45.9219V43.5781C31.875 43.2266 32.168 42.875 32.5781 42.875H34.9219C35.2734 42.875 35.625 43.2266 35.625 43.5781V45.9219ZM35.625 40.2969C35.625 40.707 35.2734 41 34.9219 41H32.5781C32.168 41 31.875 40.707 31.875 40.2969V37.9531C31.875 37.6016 32.168 37.25 32.5781 37.25H34.9219C35.2734 37.25 35.625 37.6016 35.625 37.9531V40.2969ZM51.5625 52.4844C51.5625 52.8945 51.2109 53.1875 50.8594 53.1875H39.1406C38.7305 53.1875 38.4375 52.8945 38.4375 52.4844V46.8594C38.4375 46.5078 38.7305 46.1562 39.1406 46.1562H50.8594C51.2109 46.1562 51.5625 46.5078 51.5625 46.8594V52.4844ZM51.5625 42.6406C51.5625 43.0508 51.2109 43.3438 50.8594 43.3438H39.1406C38.7305 43.3438 38.4375 43.0508 38.4375 42.6406V37.0156C38.4375 36.6641 38.7305 36.3125 39.1406 36.3125H50.8594C51.2109 36.3125 51.5625 36.6641 51.5625 37.0156V42.6406ZM58.125 51.5469C58.125 51.957 57.7734 52.25 57.4219 52.25H55.0781C54.668 52.25 54.375 51.957 54.375 51.5469V49.2031C54.375 48.8516 54.668 48.5 55.0781 48.5H57.4219C57.7734 48.5 58.125 48.8516 58.125 49.2031V51.5469ZM58.125 45.9219C58.125 46.332 57.7734 46.625 57.4219 46.625H55.0781C54.668 46.625 54.375 46.332 54.375 45.9219V43.5781C54.375 43.2266 54.668 42.875 55.0781 42.875H57.4219C57.7734 42.875 58.125 43.2266 58.125 43.5781V45.9219ZM58.125 40.2969C58.125 40.707 57.7734 41 57.4219 41H55.0781C54.668 41 54.375 40.707 54.375 40.2969V37.9531C54.375 37.6016 54.668 37.25 55.0781 37.25H57.4219C57.7734 37.25 58.125 37.6016 58.125 37.9531V40.2969Z" fill="#252641"/>
</svg>
