<svg width="90" height="90" viewBox="0 0 90 90" fill="none" xmlns="http://www.w3.org/2000/svg">
<path d="M0 4C0 1.79086 1.79086 0 4 0H86C88.2091 0 90 1.79086 90 4V86C90 88.2091 88.2091 90 86 90H4C1.79086 90 0 88.2091 0 86V4Z" fill="#EE645B" fill-opacity="0.3"/>
<path d="M56.25 50.8438V31.1562C56.25 30.3945 55.6055 29.75 54.8438 29.75H35.625C32.5195 29.75 30 32.2695 30 35.375V54.125C30 57.2305 32.5195 59.75 35.625 59.75H54.8438C55.6055 59.75 56.25 59.1641 56.25 58.3438V57.4062C56.25 56.9961 56.0156 56.5859 55.7227 56.3516C55.4297 55.4141 55.4297 52.8359 55.7227 51.957C56.0156 51.7227 56.25 51.3125 56.25 50.8438ZM37.5 37.6016C37.5 37.4258 37.6172 37.25 37.8516 37.25H50.2734C50.4492 37.25 50.625 37.4258 50.625 37.6016V38.7734C50.625 39.0078 50.4492 39.125 50.2734 39.125H37.8516C37.6172 39.125 37.5 39.0078 37.5 38.7734V37.6016ZM37.5 41.3516C37.5 41.1758 37.6172 41 37.8516 41H50.2734C50.4492 41 50.625 41.1758 50.625 41.3516V42.5234C50.625 42.7578 50.4492 42.875 50.2734 42.875H37.8516C37.6172 42.875 37.5 42.7578 37.5 42.5234V41.3516ZM52.3242 56H35.625C34.5703 56 33.75 55.1797 33.75 54.125C33.75 53.1289 34.5703 52.25 35.625 52.25H52.3242C52.207 53.3047 52.207 55.0039 52.3242 56Z" fill="#EE645B"/>
</svg>
