<svg width="90" height="90" viewBox="0 0 90 90" fill="none" xmlns="http://www.w3.org/2000/svg">
<path d="M0 4C0 1.79086 1.79086 0 4 0H86C88.2091 0 90 1.79086 90 4V86C90 88.2091 88.2091 90 86 90H4C1.79086 90 0 88.2091 0 86V4Z" fill="#00CBB8" fill-opacity="0.3"/>
<path d="M48.75 49.4375C48.75 49.9648 48.2812 50.375 47.8125 50.375H42.1875C41.6602 50.375 41.25 49.9648 41.25 49.4375V46.625H30V55.0625C30 56.5859 31.2891 57.875 32.8125 57.875H57.1875C58.6523 57.875 60 56.5859 60 55.0625V46.625H48.75V49.4375ZM57.1875 37.25H52.5V34.4375C52.5 32.9727 51.1523 31.625 49.6875 31.625H40.3125C38.7891 31.625 37.5 32.9727 37.5 34.4375V37.25H32.8125C31.2891 37.25 30 38.5977 30 40.0625V44.75H60V40.0625C60 38.5977 58.6523 37.25 57.1875 37.25ZM48.75 37.25H41.25V35.375H48.75V37.25Z" fill="#00CBB8"/>
</svg>
